<svg xmlns="http://www.w3.org/2000/svg" width="64" height="64"><g transform="matrix(1.71633 0 0 1.71633 -181.166 -1673.256)"><rect width="41.655" height="47.127" x="113.74" y="980.472" fill="#30404d" rx="0" ry="0"/><path fill="#ccc" stroke="#2bc3ef" stroke-width=".662" d="m 118.44005,1001.5126 9.304,0"/><path fill="#ccc" stroke="#b2b2b2" stroke-width=".662" d="m 118.57718,1005.3188 12.86196,0"/><path fill="#ccc" stroke="#ef4c45" stroke-width=".662" d="M126.68605 1007.1391l3.73464 0M132.22987 1007.1391l3.73464 0"/><path fill="#ccc" stroke="#b2b2b2" stroke-width=".662" d="M117.73287 1010.9454l9.304 0M128.87876 1010.9454l9.30398 0M116.98819 1014.3793l9.30398 0"/><path fill="#ccc" stroke="#ef4c45" stroke-width=".662" d="M116.83956 1018.1681l3.73464 0M138.19774 1007.1391l3.73464 0"/><path fill="#ccc" stroke="#b2b2b2" stroke-width=".662" d="m 122.44189,1018.1389 3.73463,0"/><path fill="#ccc" stroke="#2bc3ef" stroke-width=".662" d="M130.40951 1018.1681l3.73464 0M136.01184 1018.1389l3.73463 0"/><path fill="#ccc" stroke="#b2b2b2" stroke-width=".662" d="M141.74538 1010.9695l3.73464 0M147.34771 1010.9402l3.73464 0M128.87876 1021.2057l22.0465 0M116.79819 1021.2057l10.13142 0"/><path fill="#ccc" stroke="#ef4c45" stroke-width=".662" d="m 128.87876,1024.3499 8.22833,0"/><path fill="#ccc" stroke="#b2b2b2" stroke-width=".662" d="m 147.51319,1018.1389 3.73464,0"/><path fill="#ccc" stroke="#ef4c45" stroke-width=".662" d="m 151.56762,1005.6445 3.73465,0"/><path fill="#ccc" stroke="#b2b2b2" stroke-width=".662" d="m 132.13026,999.77483 9.304,0"/><path fill="#ccc" stroke="#2bc3ef" stroke-width=".662" d="m 134.83629,1014.5035 9.304,0"/><path fill="#ccc" stroke="#ef4c45" stroke-width=".662" d="m 118.57718,998.5688 12.86196,0"/><path fill="#ccc" stroke="#b2b2b2" stroke-width=".662" d="M118.57718 992.8188l28.98696 0M118.57718 994.5688l28.98696 0"/><path fill="#ccc" stroke="#ef4c45" stroke-width=".662" d="m 118.45218,986.1938 12.86196,0"/><path fill="#ccc" stroke="#b2b2b2" stroke-width=".662" d="m 118.45218,988.0688 22.48696,0"/><path fill="#ccc" stroke="#2bc3ef" stroke-width=".662" d="m 118.45218,990.5688 22.48696,0"/><rect width="41.655" height="4.627" x="113.74" y="980.472" fill="#202a33" rx="0" ry="0"/></g></svg>